<?xml version="1.0" encoding="utf-8"?>
<!-- Generator: Adobe Illustrator 14.0.0, SVG Export Plug-In . SVG Version: 6.00 Build 43363)  -->
<!DOCTYPE svg PUBLIC "-//W3C//DTD SVG 1.1//EN" "http://www.w3.org/Graphics/SVG/1.1/DTD/svg11.dtd">
<svg version="1.1" id="Ebene_1" xmlns="http://www.w3.org/2000/svg" xmlns:xlink="http://www.w3.org/1999/xlink" x="0px" y="0px"
	 width="280.595px" height="60.186px" viewBox="8.175 22.537 280.595 60.186" enable-background="new 8.175 22.537 280.595 60.186"
	 xml:space="preserve">
<g>
	<path fill="#636466" d="M109,36.71c0.462-1.623,1.929-2.837,3.706-2.897c2.206-0.077,4.057,1.648,4.135,3.855
		c0.076,2.206-1.649,4.058-3.855,4.134c-1.814,0.062-3.389-1.094-3.934-2.731c-2.382,0.084-5.147,0.174-7.076,0.205
		c-10.627,0-0.789,5.791,4.777,8.679c0.674-0.612,1.562-0.999,2.545-1.033c2.206-0.077,4.057,1.649,4.135,3.854
		c0.076,2.207-1.649,4.058-3.855,4.134c-2.207,0.076-4.058-1.648-4.135-3.854c-0.007-0.191,0-0.382,0.02-0.566
		c-3.687-1.414-8.347-3.662-13.654-7.008c-1.176-0.741-2.124-1.467-2.76-2.256c-0.684-0.78-1.053-1.637-1.107-2.506
		c-0.006-0.87,0.303-1.751,0.93-2.575c0.579-0.832,1.475-1.622,2.596-2.443c4.255-3.117,8.107-5.428,11.354-7.077
		c-0.049-2.185,1.667-4.007,3.856-4.083c2.206-0.077,4.058,1.648,4.135,3.855c0.077,2.206-1.649,4.057-3.855,4.134
		c-1.229,0.043-2.347-0.474-3.11-1.32c-5.305,3.362-11.078,7.854-3.311,7.444L109,36.71z"/>
	<g>
		<g>
			<rect x="8.175" y="24.788" fill="#636466" width="4.371" height="27.253"/>
			<polygon fill="#636466" points="32.812,30.304 46.908,52.041 51.934,52.041 51.934,24.788 47.726,24.788 47.726,46.607 
				33.793,24.788 28.604,24.788 28.604,52.041 32.812,52.041 			"/>
			<polygon fill="#636466" points="69.71,28.26 69.71,52.041 74.083,52.041 74.083,28.26 83.479,28.26 83.479,24.788 60.272,24.788 
				60.272,28.26 			"/>
			<path fill="#636466" d="M131.624,40.519h4.332c6.455,0,8.742,1.879,9.273,7.6l0.123,1.553c0.041,0.57,0.082,1.021,0.123,1.226
				c0.122,0.694,0.164,0.776,0.326,1.145h4.495c-0.53-0.897-0.53-0.897-0.735-4.127c-0.326-5.065-1.39-6.823-5.024-8.416
				c1.593-0.408,2.369-0.775,3.269-1.553c1.553-1.267,2.41-3.27,2.41-5.598c0-2.452-1.062-4.657-2.819-5.967
				c-1.553-1.103-3.799-1.594-7.722-1.594h-12.421v27.253h4.371V40.519z M131.624,37.045V28.26h7.764
				c2.492,0,3.636,0.163,4.371,0.531c1.186,0.654,1.839,2.083,1.839,3.841c0,1.554-0.489,2.697-1.512,3.515
				c-0.816,0.653-2.165,0.897-4.698,0.897H131.624z"/>
			<path fill="#96BD0D" d="M182.496,36.596h-15.936v-1.554c0-4.983,2.002-6.782,7.519-6.782h8.417v-3.474h-8.051
				c-2.817,0-4.86,0.205-6.209,0.614c-2.329,0.775-4.127,2.288-5.106,4.29c-0.735,1.512-0.94,2.858-0.94,5.924V52.04h4.373V40.07
				h15.935L182.496,36.596L182.496,36.596z"/>
			<path fill="#96BD0D" d="M199.527,40.519h4.332c6.455,0,8.742,1.879,9.273,7.6l0.123,1.553c0.041,0.57,0.081,1.021,0.122,1.226
				c0.122,0.694,0.163,0.776,0.327,1.145h4.494c-0.531-0.897-0.531-0.897-0.736-4.127c-0.326-5.065-1.389-6.823-5.025-8.416
				c1.595-0.408,2.371-0.775,3.271-1.553c1.554-1.267,2.41-3.27,2.41-5.598c0-2.452-1.062-4.657-2.818-5.967
				c-1.553-1.103-3.801-1.594-7.723-1.594h-12.42v27.253h4.37V40.519L199.527,40.519z M199.527,37.045V28.26h7.765
				c2.491,0,3.635,0.163,4.371,0.531c1.187,0.654,1.838,2.083,1.838,3.841c0,1.554-0.49,2.697-1.513,3.515
				c-0.815,0.653-2.164,0.897-4.696,0.897H199.527z"/>
			<path fill="#96BD0D" d="M242.555,24.379c-4.453,0-7.886,1.31-10.214,3.882c-1.962,2.165-3.188,6.048-3.188,10.215
				c0,3.801,1.021,7.683,2.656,9.807c2.043,2.696,5.68,4.167,10.338,4.167c3.881,0,7.107-1.021,9.438-2.982
				c2.697-2.287,3.964-5.842,3.964-10.99C255.548,28.875,251.421,24.379,242.555,24.379z M242.514,27.853
				c3.188,0,5.436,1.021,6.823,3.063c1.021,1.472,1.595,4.331,1.595,7.682c0,2.41-0.367,4.902-0.898,6.17
				c-1.186,2.777-3.76,4.208-7.6,4.208c-6.047,0-8.662-3.188-8.662-10.582C233.771,31.081,236.467,27.853,242.514,27.853z"/>
			<path fill="#96BD0D" d="M276.021,36.432v3.474h8.375v8.662h-5.147c-4.535,0-6.25-0.654-7.763-3.023
				c-1.186-1.838-1.594-3.8-1.594-7.312c0-4.535,1.145-7.478,3.474-8.907c1.43-0.899,2.327-1.062,5.883-1.062h9.521v-3.475h-9.888
				c-4.291,0-6.536,0.45-8.58,1.717c-3.391,2.043-5.024,6.007-5.024,12.054c0,4.984,1.104,8.294,3.514,10.622
				c2.328,2.207,4.617,2.86,9.887,2.86h10.092V36.432H276.021z"/>
		</g>
	</g>
</g>
<g>
	<path fill="#646567" d="M170.205,71.542c0.443-0.084,0.932-0.149,1.463-0.197c0.532-0.047,1.062-0.069,1.589-0.069
		c0.55,0,1.101,0.045,1.652,0.135c0.554,0.088,1.052,0.268,1.495,0.537c0.441,0.268,0.804,0.643,1.082,1.123
		c0.279,0.479,0.42,1.104,0.42,1.873c0,0.695-0.121,1.283-0.364,1.764c-0.242,0.479-0.563,0.871-0.964,1.178
		c-0.401,0.306-0.855,0.527-1.368,0.664c-0.512,0.138-1.041,0.205-1.589,0.205c-0.053,0-0.139,0-0.253,0
		c-0.116,0-0.237-0.002-0.364-0.008c-0.126-0.006-0.25-0.014-0.371-0.022c-0.121-0.01-0.208-0.021-0.261-0.031v3.811h-2.167V71.542
		L170.205,71.542z M173.432,73.14c-0.211,0-0.41,0.008-0.602,0.022c-0.189,0.017-0.344,0.035-0.458,0.057v3.589
		c0.042,0.012,0.104,0.021,0.188,0.03c0.084,0.013,0.174,0.021,0.27,0.025c0.095,0.004,0.188,0.008,0.277,0.008
		c0.088,0,0.154,0,0.197,0c0.283,0,0.565-0.027,0.846-0.08c0.279-0.053,0.529-0.149,0.75-0.293c0.223-0.141,0.398-0.34,0.531-0.592
		c0.131-0.254,0.196-0.586,0.196-0.996c0-0.348-0.063-0.635-0.188-0.861c-0.127-0.227-0.293-0.409-0.498-0.547
		c-0.207-0.137-0.44-0.229-0.705-0.283C173.973,73.167,173.705,73.14,173.432,73.14z"/>
	<path fill="#646567" d="M183.107,76.524c-0.326-0.117-0.621-0.176-0.885-0.176c-0.369,0-0.679,0.098-0.926,0.293
		c-0.248,0.194-0.414,0.444-0.498,0.752V82.5h-2.056v-7.906h1.597l0.237,1.044h0.063c0.178-0.39,0.422-0.689,0.728-0.9
		s0.664-0.316,1.075-0.316c0.272,0,0.584,0.06,0.933,0.174L183.107,76.524z"/>
	<path fill="#646567" d="M183.914,78.548c0-1.34,0.327-2.368,0.98-3.092c0.652-0.723,1.569-1.082,2.752-1.082
		c0.631,0,1.18,0.101,1.644,0.299c0.464,0.201,0.849,0.482,1.153,0.847c0.307,0.364,0.535,0.805,0.688,1.319
		c0.152,0.519,0.229,1.086,0.229,1.709c0,1.338-0.324,2.369-0.973,3.093c-0.648,0.721-1.563,1.082-2.744,1.082
		c-0.633,0-1.182-0.101-1.645-0.302c-0.465-0.198-0.852-0.481-1.162-0.846c-0.312-0.363-0.544-0.803-0.695-1.32
		C183.99,79.739,183.914,79.169,183.914,78.548z M186.033,78.548c0,0.349,0.031,0.67,0.095,0.966
		c0.063,0.295,0.158,0.553,0.285,0.772c0.126,0.223,0.292,0.394,0.498,0.514c0.205,0.123,0.45,0.185,0.735,0.185
		c0.537,0,0.938-0.195,1.201-0.586c0.262-0.392,0.396-1.006,0.396-1.851c0-0.729-0.121-1.313-0.364-1.764
		c-0.242-0.447-0.652-0.672-1.232-0.672c-0.506,0-0.9,0.188-1.187,0.568C186.176,77.062,186.033,77.683,186.033,78.548z"/>
	<path fill="#646567" d="M199.505,79.718c0,0.443,0.007,0.886,0.017,1.328c0.011,0.443,0.059,0.935,0.143,1.472h-1.471l-0.284-1.027
		h-0.063c-0.211,0.369-0.514,0.666-0.908,0.893c-0.396,0.228-0.861,0.341-1.399,0.341c-0.991,0-1.761-0.326-2.31-0.98
		c-0.547-0.652-0.821-1.676-0.821-3.066c0-1.35,0.306-2.397,0.917-3.146c0.611-0.75,1.508-1.123,2.688-1.123
		c0.326,0,0.596,0.018,0.807,0.055c0.212,0.037,0.422,0.099,0.633,0.183v-3.209h2.056v8.281H199.505z M196.012,80.983
		c0.399,0,0.717-0.099,0.947-0.293c0.232-0.195,0.396-0.478,0.49-0.847V76.49c-0.147-0.115-0.311-0.203-0.49-0.26
		c-0.18-0.06-0.41-0.088-0.695-0.088c-0.58,0-1.015,0.194-1.305,0.586c-0.29,0.391-0.436,1.059-0.436,2.008
		c0,0.674,0.119,1.217,0.355,1.629C195.117,80.776,195.494,80.983,196.012,80.983z"/>
	<path fill="#646567" d="M203.284,74.594v4.49c0,0.644,0.075,1.107,0.229,1.392c0.151,0.284,0.449,0.428,0.893,0.428
		c0.391,0,0.715-0.115,0.973-0.348c0.26-0.232,0.451-0.517,0.577-0.854v-5.107h2.056v5.503c0,0.434,0.021,0.856,0.063,1.272
		s0.104,0.793,0.188,1.131h-1.55l-0.362-1.17h-0.063c-0.242,0.4-0.58,0.732-1.013,0.996s-0.942,0.396-1.533,0.396
		c-0.4,0-0.76-0.054-1.075-0.158c-0.315-0.105-0.579-0.279-0.79-0.521s-0.372-0.567-0.482-0.979
		c-0.109-0.41-0.166-0.929-0.166-1.549v-4.918h2.056V74.594z"/>
	<path fill="#646567" d="M212.424,79.228h-0.554v3.272h-2.056V71.433h2.056v6.528l0.476-0.221l1.801-3.146h2.263l-1.897,3.005
		l-0.807,0.602l0.87,0.615l2.134,3.686h-2.355L212.424,79.228z"/>
	<path fill="#646567" d="M216.756,74.594h1.092v-1.485l2.055-0.586v2.071h1.93v1.738h-1.93v3.037c0,0.547,0.057,0.939,0.166,1.178
		c0.111,0.236,0.318,0.355,0.625,0.355c0.211,0,0.394-0.021,0.545-0.062c0.154-0.043,0.324-0.104,0.515-0.188l0.364,1.58
		c-0.285,0.137-0.617,0.254-0.996,0.348c-0.38,0.096-0.766,0.144-1.154,0.144c-0.729,0-1.263-0.188-1.605-0.562
		c-0.342-0.375-0.514-0.988-0.514-1.842v-3.986h-1.091L216.756,74.594L216.756,74.594z"/>
	<path fill="#646567" d="M222.986,72.364c0-0.305,0.111-0.566,0.34-0.781c0.227-0.217,0.54-0.324,0.939-0.324
		c0.4,0,0.726,0.107,0.973,0.324c0.248,0.215,0.371,0.478,0.371,0.781c0,0.307-0.123,0.562-0.371,0.768
		c-0.247,0.205-0.571,0.31-0.973,0.31c-0.4,0-0.714-0.104-0.939-0.31C223.1,72.927,222.986,72.671,222.986,72.364z M223.286,74.594
		h2.056v7.906h-2.056V74.594z"/>
	<path fill="#646567" d="M226.971,78.548c0-1.34,0.326-2.368,0.979-3.092c0.653-0.723,1.569-1.082,2.752-1.082
		c0.632,0,1.18,0.101,1.644,0.299c0.465,0.201,0.85,0.482,1.154,0.847c0.307,0.364,0.535,0.805,0.688,1.319
		c0.152,0.519,0.229,1.086,0.229,1.709c0,1.338-0.324,2.369-0.974,3.093c-0.647,0.721-1.562,1.082-2.742,1.082
		c-0.633,0-1.182-0.101-1.645-0.302c-0.466-0.198-0.853-0.481-1.162-0.846c-0.312-0.363-0.545-0.803-0.696-1.32
		C227.046,79.739,226.971,79.169,226.971,78.548z M229.089,78.548c0,0.349,0.031,0.67,0.095,0.966
		c0.064,0.295,0.158,0.553,0.285,0.772c0.127,0.223,0.293,0.394,0.498,0.514c0.205,0.123,0.45,0.185,0.735,0.185
		c0.537,0,0.938-0.195,1.2-0.586c0.264-0.392,0.396-1.006,0.396-1.851c0-0.729-0.121-1.313-0.363-1.764
		c-0.242-0.447-0.653-0.672-1.232-0.672c-0.508,0-0.9,0.188-1.188,0.568C229.23,77.062,229.089,77.683,229.089,78.548z"/>
	<path fill="#646567" d="M240.68,82.501v-4.49c0-0.645-0.093-1.106-0.277-1.393c-0.184-0.286-0.498-0.426-0.939-0.426
		c-0.391,0-0.72,0.113-0.988,0.34c-0.268,0.227-0.461,0.508-0.576,0.846v5.123h-2.057v-7.906h1.629l0.237,1.044h0.062
		c0.242-0.337,0.564-0.634,0.965-0.886c0.4-0.254,0.918-0.379,1.551-0.379c0.39,0,0.736,0.053,1.043,0.156
		c0.306,0.104,0.564,0.281,0.775,0.522c0.211,0.242,0.369,0.57,0.475,0.988c0.104,0.416,0.156,0.931,0.156,1.541V82.5L240.68,82.501
		L240.68,82.501z"/>
	<path fill="#646567" d="M252.206,76.729h4.127v4.934c-0.442,0.369-0.974,0.637-1.589,0.807c-0.617,0.169-1.227,0.253-1.827,0.253
		c-0.706,0-1.362-0.111-1.968-0.332c-0.606-0.222-1.131-0.566-1.573-1.035c-0.442-0.47-0.791-1.068-1.044-1.795
		c-0.253-0.728-0.38-1.593-0.38-2.595c0-1.043,0.149-1.932,0.45-2.664c0.301-0.731,0.695-1.327,1.187-1.786s1.041-0.791,1.652-0.996
		c0.61-0.205,1.233-0.31,1.866-0.31c0.632,0,1.188,0.049,1.668,0.144c0.479,0.096,0.86,0.194,1.146,0.301l-0.442,1.818
		c-0.264-0.105-0.56-0.188-0.886-0.244c-0.327-0.06-0.743-0.088-1.249-0.088c-0.453,0-0.869,0.067-1.25,0.204
		c-0.379,0.138-0.709,0.361-0.986,0.673c-0.28,0.312-0.496,0.709-0.648,1.194c-0.152,0.484-0.229,1.074-0.229,1.771
		c0,0.664,0.072,1.235,0.222,1.717c0.147,0.479,0.353,0.875,0.616,1.186c0.263,0.312,0.57,0.541,0.925,0.688
		c0.354,0.148,0.729,0.221,1.131,0.221c0.272,0,0.543-0.033,0.808-0.102c0.262-0.068,0.483-0.172,0.664-0.31v-2.088l-2.389-0.252
		L252.206,76.729L252.206,76.729z"/>
	<path fill="#646567" d="M262.373,82.501V78.2c0-0.729-0.068-1.244-0.205-1.551c-0.139-0.306-0.422-0.457-0.854-0.457
		c-0.358,0-0.647,0.096-0.869,0.291c-0.223,0.194-0.391,0.444-0.506,0.752v5.266h-2.057v-7.906h1.598l0.236,1.044h0.062
		c0.242-0.337,0.552-0.634,0.926-0.886c0.374-0.254,0.855-0.379,1.447-0.379c0.506,0,0.918,0.103,1.24,0.308
		c0.321,0.207,0.571,0.551,0.752,1.036c0.241-0.411,0.553-0.737,0.933-0.979s0.838-0.363,1.376-0.363
		c0.441,0,0.818,0.053,1.13,0.156c0.312,0.104,0.563,0.289,0.76,0.547c0.194,0.258,0.341,0.604,0.435,1.035
		c0.096,0.431,0.144,0.979,0.144,1.645v4.744h-2.056v-4.442c0-0.623-0.066-1.088-0.198-1.4c-0.132-0.311-0.424-0.465-0.877-0.465
		c-0.369,0-0.662,0.1-0.878,0.299c-0.217,0.201-0.377,0.475-0.482,0.822v5.188h-2.057V82.501z"/>
	<path fill="#646567" d="M270.611,71.433h2.056v3.795h0.063c0.221-0.254,0.506-0.453,0.854-0.603
		c0.348-0.146,0.732-0.221,1.154-0.221c0.947,0,1.673,0.324,2.174,0.973c0.501,0.649,0.751,1.638,0.751,2.965
		c0,1.423-0.351,2.502-1.052,3.24c-0.7,0.738-1.662,1.107-2.885,1.107c-0.676,0-1.293-0.056-1.852-0.166
		c-0.559-0.111-0.98-0.234-1.266-0.371v-10.72H270.611z M274.139,76.144c-0.381,0-0.688,0.098-0.927,0.293
		c-0.235,0.194-0.419,0.477-0.545,0.846v3.447c0.168,0.084,0.351,0.143,0.545,0.174c0.195,0.031,0.403,0.047,0.625,0.047
		c0.56,0,0.981-0.201,1.272-0.607c0.289-0.405,0.436-1.053,0.436-1.938C275.545,76.897,275.075,76.144,274.139,76.144z"/>
	<path fill="#646567" d="M285.35,77.868h-4.049v4.633h-2.167V71.433h2.167v4.506h4.049v-4.506h2.166v11.067h-2.166V77.868z"/>
</g>
</svg>
